<?xml version="1.0" encoding="UTF-8" standalone="no"?>
<!-- Created with Inkscape (http://www.inkscape.org/) -->
<svg
   xmlns:dc="http://purl.org/dc/elements/1.1/"
   xmlns:cc="http://web.resource.org/cc/"
   xmlns:rdf="http://www.w3.org/1999/02/22-rdf-syntax-ns#"
   xmlns:svg="http://www.w3.org/2000/svg"
   xmlns="http://www.w3.org/2000/svg"
   xmlns:xlink="http://www.w3.org/1999/xlink"
   xmlns:sodipodi="http://sodipodi.sourceforge.net/DTD/sodipodi-0.dtd"
   xmlns:inkscape="http://www.inkscape.org/namespaces/inkscape"
   id="svg2211"
   sodipodi:version="0.32"
   inkscape:version="0.45"
   width="42.279999"
   height="42.279999"
   version="1.0"
   sodipodi:docbase="E:\-\Wikipedia\Stubs mine"
   sodipodi:docname="Telecom stub.svg"
   inkscape:output_extension="org.inkscape.output.svg.inkscape"
   sodipodi:modified="true">
  <metadata
     id="metadata2216">
    <rdf:RDF>
      <cc:Work
         rdf:about="">
        <dc:format>image/svg+xml</dc:format>
        <dc:type
           rdf:resource="http://purl.org/dc/dcmitype/StillImage" />
      </cc:Work>
    </rdf:RDF>
  </metadata>
  <defs
     id="defs2214">
    <linearGradient
       id="linearGradient3452">
      <stop
         style="stop-color:#020202;stop-opacity:1;"
         offset="0"
         id="stop3454" />
      <stop
         style="stop-color:#010101;stop-opacity:0;"
         offset="1"
         id="stop3456" />
    </linearGradient>
    <linearGradient
       id="linearGradient3166">
      <stop
         style="stop-color:#676767;stop-opacity:1.0000000"
         offset="0.00000000"
         id="stop3168" />
      <stop
         style="stop-color:#656565;stop-opacity:0.00000000"
         offset="1.0000000"
         id="stop3170" />
    </linearGradient>
    <linearGradient
       id="linearGradient5135">
      <stop
         style="stop-color:#3f3f3f;stop-opacity:1;"
         offset="0"
         id="stop5137" />
      <stop
         style="stop-color:#ffffff;stop-opacity:1;"
         offset="1"
         id="stop5139" />
    </linearGradient>
    <radialGradient
       inkscape:collect="always"
       xlink:href="#linearGradient3166"
       id="radialGradient4068"
       gradientUnits="userSpaceOnUse"
       gradientTransform="matrix(0.1418664,0,0,8.0892967e-2,2.1848301,-9.1768846)"
       cx="128.72601"
       cy="228.36729"
       fx="128.72601"
       fy="228.36729"
       r="105.21568" />
    <linearGradient
       inkscape:collect="always"
       xlink:href="#linearGradient5135"
       id="linearGradient4459"
       gradientUnits="userSpaceOnUse"
       gradientTransform="matrix(0.9637557,0,0,0.7931017,-1.7786882,-2.5602451)"
       x1="40.605217"
       y1="12.89941"
       x2="17.594276"
       y2="36.913795" />
    <linearGradient
       inkscape:collect="always"
       xlink:href="#linearGradient3452"
       id="linearGradient3458"
       x1="22.804193"
       y1="29.992498"
       x2="22.89258"
       y2="20.668289"
       gradientUnits="userSpaceOnUse" />
    <clipPath
       clipPathUnits="userSpaceOnUse"
       id="clipPath3460">
      <path
         sodipodi:nodetypes="ccccccccccccccccccccc"
         id="path3462"
         d="M 25.069881,41.130496 C 27.079389,40.421714 27.695169,38.204457 28.601499,36.378839 C 29.663522,35.265045 30.58173,37.833704 32.653044,37.596102 C 34.079378,37.433697 36.34782,35.025464 35.464105,33.457825 C 33.521967,31.758607 32.138859,33.953515 30.932917,32.539816 C 30.748805,31.016876 34.94345,29.918652 33.960313,28.807293 C 32.166682,27.474669 28.825769,27.822191 25.616284,26.585768 C 24.184102,24.967586 28.852477,25.64151 27.824999,24.061307 C 27.40421,23.426798 24.611234,21.881607 21.44427,22.54663 C 19.410448,23.22158 21.800127,25.284911 18.622025,25.071091 C 16.448788,24.800697 12.755472,23.383805 10.646116,24.061306 C 9.0118072,25.179749 8.2032415,26.741431 8.0692843,27.292617 C 7.7371923,28.99874 11.676712,27.854359 12.250246,28.29872 C 13.947545,29.697845 10.323135,31.43241 9.2985836,30.84343 C 8.8886328,30.01844 7.8957766,29.588854 6.5319175,29.87898 C 5.1474808,29.96475 2.8226318,34.088612 3.51573,35.172619 C 4.6774636,36.526271 10.967634,38.239044 12.524071,38.044909 C 14.560705,38.097272 13.442229,37.20473 13.588506,36.060883 C 13.902045,34.605215 21.164782,36.671248 19.618085,37.657993 C 17.547476,38.040205 16.975063,38.749771 17.734666,39.477447 C 19.111487,40.644463 23.905804,41.682832 25.069881,41.130496 z "
         style="opacity:0.14084509;fill:#0000ff;fill-opacity:1;fill-rule:evenodd;stroke:#000000;stroke-width:0.52972847;stroke-linecap:butt;stroke-linejoin:miter;stroke-miterlimit:4;stroke-dasharray:none;stroke-opacity:1;display:inline" />
    </clipPath>
  </defs>
  <sodipodi:namedview
     inkscape:window-height="721"
     inkscape:window-width="1024"
     inkscape:pageshadow="2"
     inkscape:pageopacity="0.0"
     guidetolerance="10.0"
     gridtolerance="10.0"
     objecttolerance="10.0"
     borderopacity="1.0"
     bordercolor="#666666"
     pagecolor="#ffffff"
     id="base"
     inkscape:zoom="1"
     inkscape:cx="98.468395"
     inkscape:cy="-4.2120376"
     inkscape:window-x="-4"
     inkscape:window-y="-4"
     inkscape:current-layer="layer4"
     width="43px"
     height="43.529999px" />
  <g
     inkscape:groupmode="layer"
     id="layer5"
     inkscape:label="Page"
     transform="translate(-1.11,-0.3899987)"
     sodipodi:insensitive="true" />
  <g
     inkscape:groupmode="layer"
     id="layer1"
     inkscape:label="wiki-stub"
     style="display:inline"
     transform="translate(0.645,15.110007)"
     sodipodi:insensitive="true">
    <path
       style="opacity:1;fill:url(#linearGradient4459);fill-opacity:1;fill-rule:evenodd;stroke:#000000;stroke-width:0.52972847;stroke-linecap:butt;stroke-linejoin:miter;stroke-miterlimit:4;stroke-dasharray:none;stroke-opacity:1"
       d="M 24.424881,26.020489 C 26.434389,25.311707 27.050169,23.09445 27.956499,21.268832 C 29.018522,20.155038 29.93673,22.723697 32.008044,22.486095 C 33.434378,22.32369 35.70282,19.915457 34.819105,18.347818 C 32.876967,16.6486 31.493859,18.843508 30.287917,17.429809 C 30.103805,15.906869 34.29845,14.808645 33.315313,13.697286 C 31.521682,12.364662 28.180769,12.712184 24.971284,11.475761 C 23.539102,9.8575787 28.207477,10.531503 27.179999,8.9512998 C 26.75921,8.3167908 23.966234,6.7716003 20.79927,7.4366232 C 18.765448,8.1115726 21.155127,10.174904 17.977025,9.9610841 C 15.803788,9.6906903 12.110472,8.2737976 10.001116,8.9512991 C 8.3668072,10.069742 7.5582415,11.631424 7.4242843,12.18261 C 7.0921923,13.888733 11.031712,12.744352 11.605246,13.188713 C 13.302545,14.587838 9.6781352,16.322403 8.6535836,15.733423 C 8.2436328,14.908433 7.2507766,14.478847 5.8869175,14.768973 C 4.5024808,14.854743 2.1776318,18.978605 2.87073,20.062612 C 4.0324636,21.416264 10.322634,23.129037 11.879071,22.934902 C 13.915705,22.987265 12.797229,22.094723 12.943506,20.950876 C 13.257045,19.495208 20.519782,21.561241 18.973085,22.547986 C 16.902476,22.930198 16.330063,23.639764 17.089666,24.36744 C 18.466487,25.534456 23.260804,26.572825 24.424881,26.020489 z "
       id="path2220"
       sodipodi:nodetypes="ccccccccccccccccccccc" />
  </g>
  <g
     inkscape:groupmode="layer"
     id="layer4"
     inkscape:label="Shadow">
    <path
       style="opacity:0.25821596;fill:url(#linearGradient3458);fill-opacity:1.0;fill-rule:nonzero;stroke:none;stroke-width:6.0999999;stroke-linecap:round;stroke-linejoin:miter;stroke-miterlimit:4;stroke-dasharray:none;stroke-dashoffset:0;stroke-opacity:1"
       d="M 15.379572,29.662562 L 27.046834,21.420348 L 33.587572,23.364892 L 25.10229,30.016115 L 24.558412,29.954333 L 25.367456,26.104931 L 16.009376,29.992499 L 15.379572,29.662562 z "
       id="path3450"
       sodipodi:nodetypes="cccccccc"
       clip-path="url(#clipPath3460)" />
  </g>
  <g
     inkscape:groupmode="layer"
     id="layer2"
     inkscape:label="Tower"
     style="display:inline"
     transform="translate(0.645,15.110007)"
     sodipodi:insensitive="true">
    <g
       id="g3420">
      <g
         id="g4152"
         transform="matrix(6.3883465e-2,0,0,6.3883465e-2,3.4816442,-16.442245)">
        <path
           style="fill:none;fill-opacity:1;fill-rule:evenodd;stroke:#000000;stroke-width:12.5;stroke-linecap:round;stroke-linejoin:round;stroke-miterlimit:4;stroke-dasharray:none;stroke-opacity:1"
           d="M 289.5,360.25 L 183,485"
           id="path4138" />
        <path
           id="path2797"
           d="M 217.5,360.25 L 324,485"
           style="fill:none;fill-opacity:0.75;fill-rule:evenodd;stroke:#000000;stroke-width:12.5;stroke-linecap:round;stroke-linejoin:round;stroke-miterlimit:4;stroke-dasharray:none;stroke-opacity:1" />
        <path
           style="fill:none;fill-opacity:1;fill-rule:evenodd;stroke:#000000;stroke-width:12.5;stroke-linecap:round;stroke-linejoin:round;stroke-miterlimit:4;stroke-dasharray:none;stroke-opacity:1"
           d="M 182,487.5 L 252,240"
           id="path2778"
           sodipodi:nodetypes="cc" />
        <path
           sodipodi:nodetypes="cc"
           id="path4136"
           d="M 325,487.5 L 255,240"
           style="fill:none;fill-opacity:0.75;fill-rule:evenodd;stroke:#000000;stroke-width:12.5;stroke-linecap:round;stroke-linejoin:round;stroke-miterlimit:4;stroke-dasharray:none;stroke-opacity:1" />
        <path
           id="path2793"
           d="M 276.27171,315.88146 L 217.5,360.25"
           style="fill:none;fill-opacity:0.75;fill-rule:evenodd;stroke:#000000;stroke-width:10;stroke-linecap:round;stroke-linejoin:round;stroke-miterlimit:4;stroke-dasharray:none;stroke-opacity:1" />
        <path
           id="path2781"
           d="M 242.43755,276.8769 L 276.27171,315.88146"
           style="fill:none;fill-opacity:0.75;fill-rule:evenodd;stroke:#000000;stroke-width:6.75;stroke-linecap:round;stroke-linejoin:round;stroke-miterlimit:4;stroke-dasharray:none;stroke-opacity:1" />
        <path
           style="fill:none;fill-opacity:0.75;fill-rule:evenodd;stroke:#000000;stroke-width:10;stroke-linecap:round;stroke-linejoin:round;stroke-miterlimit:4;stroke-dasharray:none;stroke-opacity:1"
           d="M 230.72829,315.88146 L 289.5,360.25"
           id="path4140" />
        <path
           style="fill:none;fill-opacity:0.75;fill-rule:evenodd;stroke:#000000;stroke-width:6.75;stroke-linecap:round;stroke-linejoin:round;stroke-miterlimit:4;stroke-dasharray:none;stroke-opacity:1"
           d="M 264.56245,276.8769 L 230.72829,315.88146"
           id="path4142" />
      </g>
      <g
         id="g4163"
         style="fill:#015e7e;fill-opacity:1"
         transform="matrix(6.3883465e-2,0,0,6.3883465e-2,3.4816442,-16.442245)">
        <path
           style="opacity:0.85;fill:#015e7e;fill-opacity:1;fill-rule:evenodd;stroke:#caebf0;stroke-width:0;stroke-linecap:butt;stroke-linejoin:miter;stroke-miterlimit:4;stroke-dasharray:none;stroke-opacity:1"
           d="M 287.08535,200.18672 L 463.86205,86.342533 L 415.07168,84.221213 L 463.86205,29.773991 L 323.1478,113.91969 L 379.71634,112.50548 L 287.08535,200.18672 z "
           id="path2799"
           sodipodi:nodetypes="ccccccc" />
        <path
           style="opacity:0.85;fill:#015e7e;fill-opacity:1;fill-rule:evenodd;stroke:#caebf0;stroke-width:0;stroke-linecap:butt;stroke-linejoin:miter;stroke-miterlimit:4;stroke-dasharray:none;stroke-opacity:1"
           d="M 275.77164,236.95628 L 386.78741,314.73802 L 381.13056,280.08979 L 475.17576,306.95985 L 325.26912,215.74307 L 323.85491,241.19892 L 275.77164,236.95628 z "
           id="path2803"
           sodipodi:nodetypes="ccccccc" />
        <path
           style="opacity:0.85;fill:#015e7e;fill-opacity:1;fill-rule:evenodd;stroke:#caebf0;stroke-width:0;stroke-linecap:butt;stroke-linejoin:miter;stroke-miterlimit:4;stroke-dasharray:none;stroke-opacity:1"
           d="M 217.78889,244.73445 L 105.35891,296.35325 L 145.664,304.83853 L 40.305087,381.20606 L 219.2031,291.4035 L 194.45436,281.50401 L 217.78889,244.73445 z "
           id="path2805"
           sodipodi:nodetypes="ccccccc" />
        <path
           style="opacity:0.85;fill:#015e7e;fill-opacity:1;fill-rule:evenodd;stroke:#caebf0;stroke-width:0;stroke-linecap:butt;stroke-linejoin:miter;stroke-miterlimit:4;stroke-dasharray:none;stroke-opacity:1"
           d="M 198.69701,203.72226 L 67.882251,77.150145 L 65.760931,112.50548 L 23.334524,101.19178 L 103.23759,179.68063 L 102.53048,148.56793 L 198.69701,203.72226 z "
           id="path2807"
           sodipodi:nodetypes="ccccccc" />
        <path
           style="opacity:0.85;fill:#015e7e;fill-opacity:1;fill-rule:evenodd;stroke:#caebf0;stroke-width:0;stroke-linecap:butt;stroke-linejoin:miter;stroke-miterlimit:4;stroke-dasharray:none;stroke-opacity:1"
           d="M 260.2153,203.72226 C 259.50819,199.47962 259.50819,100.48467 259.50819,100.48467 L 238.29498,128.06184 L 221.32443,25.531349 L 217.78889,189.58013 L 241.83052,171.90245 L 260.2153,203.72226 z "
           id="path2809"
           sodipodi:nodetypes="ccccccc" />
      </g>
    </g>
  </g>
</svg>
